<svg width="23" height="25" viewBox="0 0 23 25" fill="none" xmlns="http://www.w3.org/2000/svg">
<path id="*" d="M11.0116 13.2615H10.9228L5.15058 21.3232L4.35135 21.6012L2.30888 19.3773L2.48649 18.636L10.2124 12.6128V12.5202L0.710425 13.9101L0 13.5395V10.4815L0.710425 10.1109L10.2124 11.5008V11.4082L2.48649 5.38501L2.30888 4.6437L4.35135 2.41976L5.15058 2.69776L10.9228 10.7595H11.0116L9.67954 0.751807L10.0347 0.010498H12.9653L13.3205 0.751807L11.9884 10.7595H12.0772L17.8494 2.69776L18.6486 2.41976L20.6911 4.6437L20.5135 5.38501L12.7876 11.4082V11.5008L22.2896 10.1109L23 10.4815V13.5395L22.2896 13.9101L12.7876 12.5202V12.6128L20.5135 18.636L20.6911 19.3773L18.6486 21.6012L17.8494 21.3232L12.0772 13.2615H11.9884L13.3205 23.2692L12.9653 24.0105H10.0347L9.67954 23.2692L11.0116 13.2615Z" fill="white"/>
</svg>
