<svg width="146" height="47" viewBox="0 0 146 47" fill="none" xmlns="http://www.w3.org/2000/svg">
<g id="Vector">
<path d="M0 26.7638C0 22.7762 3.04154 20.274 8.09898 19.8673L15.2608 19.2838V18.5676C15.2608 14.3147 12.7055 12.9708 9.53134 12.9708C5.77362 12.9708 3.53667 14.6684 3.53667 17.5773H0.716177C0.716177 13.1918 4.29706 10.3713 9.61975 10.3713C14.633 10.3713 18.3023 12.8824 18.3023 18.6118V32.6259H15.7028L15.2961 28.8239C13.9522 31.556 10.9991 33.1652 7.32976 33.1652C2.72324 33.1652 0 30.5657 0 26.7638ZM15.2608 22.7851V21.618L8.85937 22.1131C4.78335 22.4756 3.12996 24.2616 3.12996 26.6754C3.12996 29.3191 5.10165 30.663 8.05478 30.663C12.6171 30.663 15.2608 27.48 15.2608 22.7851Z" fill="#F2F2F2"/>
<path d="M19.3721 21.7948C19.3721 15.0397 23.5808 10.3802 29.7611 10.3802C35.6231 10.3802 39.6107 14.5446 39.6107 20.6719V22.1927H22.3694C22.5905 27.4712 25.3668 30.5215 30.0264 30.5215C33.563 30.5215 35.8442 29.0008 36.6488 26.1361H39.6019C38.4348 30.6984 35.0838 33.1652 29.9821 33.1652C23.625 33.1652 19.3721 28.6029 19.3721 21.7948ZM22.4579 19.9646H36.5161C36.5161 15.8001 33.8283 13.0238 29.7611 13.0238C25.6939 13.0238 22.9972 15.7117 22.4579 19.9646Z" fill="#F2F2F2"/>
<path d="M40.8928 2.85613e-05H43.9785V32.6347H40.8928V2.85613e-05Z" fill="#F2F2F2"/>
<path d="M45.8176 32.6259V10.9637H48.5055L48.868 14.0495C49.9467 11.7683 52.3605 10.3802 55.402 10.3802C58.8061 10.3802 61.3525 12.175 62.3869 14.9867C63.3684 12.1662 66.012 10.3802 69.5045 10.3802C74.2083 10.3802 77.294 13.4217 77.294 18.4349V32.6259H74.2967V19.0627C74.2967 15.3492 72.2366 13.1565 68.921 13.1565C65.2959 13.1565 63.1473 15.8885 63.1473 19.2484V32.6347H60.1058V19.0185C60.1058 15.3492 58.0015 13.2007 54.73 13.2007C51.105 13.2007 48.9122 15.8885 48.9122 19.1953V32.6259H45.8176Z" fill="#F2F2F2"/>
<path d="M108.255 0.645442L97.1143 23.7841C95.8146 26.5251 94.3115 28.8062 92.4901 28.8062C88.3876 28.8062 89.8553 23.9168 90.8279 20.0087L93.3035 9.90269C94.4087 5.27849 94.7713 0 89.8818 0C86.69 0 85.125 3.71351 82.384 11.2732L83.6838 11.6003C86.0268 5.02208 87.2647 2.83818 88.6351 2.83818C90.651 2.83818 89.8111 6.18918 88.4406 11.9274L86.2921 20.8575C84.6652 27.5065 85.3814 31.4145 90.3946 31.8743H90.7837V32.0069C86.8049 33.51 80.0322 35.5259 80.0322 40.6099C80.0322 44.3853 83.4893 46.021 87.0083 46.021C96.6545 46.021 105.196 33.5542 108.511 20.0618C109.705 15.2077 113.268 0.654284 113.268 0.654284H108.255V0.645442ZM103.233 22.281C99.9083 33.2271 93.5246 44.5709 88.4406 44.5709C86.2921 44.5709 83.9932 43.0679 83.9932 40.4684C83.9932 35.0573 90.5891 33.8902 94.17 30.884C95.4697 29.7788 96.6457 27.8867 98.078 24.9512L106.416 7.61269L107.521 8.19624L103.233 22.281Z" fill="#F2F2F2"/>
<path d="M138.405 11.4234C141.65 11.4234 142.393 15.0397 142.622 17.9132L142.711 18.9831H144.099L146 10.8664H144.744L144.373 12.2546L144.187 12.396C143.259 11.5119 141.402 10.3978 138.9 10.3978C135.001 10.3978 132.225 12.7585 132.225 16.4278C132.225 18.3288 133.754 20.1413 135.425 21.5737L137.468 23.3332C138.723 24.403 140.527 25.2784 140.527 27.4092C140.527 29.5401 139.183 32.0953 136.769 32.0953C133.984 32.0953 133.153 29.4074 132.136 25.2784L131.951 24.5357C131.906 24.5357 131.756 24.5357 131.279 24.5357C131.252 24.6683 131.243 24.8009 131.208 24.9247C129.855 29.6904 128.44 30.9813 127.379 30.8398C125.894 30.6541 126.495 28.6117 127.521 24.4384L130.58 12.1043V10.8487H127.194L126.734 12.6613L123.86 10.389C115.7 10.389 109.714 18.9212 109.528 26.5693C109.44 30.4154 110.686 33.1033 114.585 33.1033C118.113 33.1033 119.219 30.1855 121.73 24.854L125.947 15.8089L126.734 16.2245L124.055 26.2686C123.082 29.9291 122.852 33.1298 126.283 33.1298C127.848 33.1298 128.98 32.1307 130.129 29.9645C130.129 29.9645 131.376 33.1298 136.141 33.1298C140.642 33.1298 143.843 30.4419 143.843 26.4101C143.843 24.1378 142.216 22.7496 140.5 21.2642L138.14 19.2218C136.884 18.152 135.54 16.6754 135.54 15.137C135.531 13.1387 136.504 11.4234 138.405 11.4234ZM120.713 24.8274C118.768 29.0007 117.654 30.9017 115.894 30.9017C114.639 30.9017 113.533 29.6992 113.622 26.5427C113.807 19.823 118.396 11.6622 123.639 11.6622L126 13.5631L120.713 24.8274Z" fill="#F2F2F2"/>
</g>
</svg>
